<?xml version="1.0" encoding="UTF-8"?>
<svg id="Livello_1" data-name="Livello 1" xmlns="http://www.w3.org/2000/svg" viewBox="0 0 38.03 38.03">
  <defs>
    <style>
      .cls-1 {
        fill: #89cae8;
      }
    </style>
  </defs>
  <g id="kLxELZ">
    <path class="cls-1" d="M3.77.02l30.28-.02c2.08.22,3.76,1.89,3.97,3.97v30.08c-.22,2.08-1.89,3.76-3.97,3.97H3.97c-2.08-.22-3.76-1.89-3.97-3.97V3.9C.25,1.92,1.79.33,3.77.02ZM25.11,35.06h8.5s.5-.13.58-.17c.6-.26.84-.88.88-1.5V4.64c-.09-1.08-.59-1.59-1.67-1.67H4.72c-1.18.08-1.66.56-1.75,1.74v28.67c.04.62.27,1.24.88,1.5.08.03.53.17.58.17h16.08v-12.11h-4.46v-4.6h4.46v-4.05c0-2.62,3.36-5.98,5.98-5.98h3.9v4.6h-3.08c-1.12,0-2.19,1.08-2.19,2.19v3.23h5.35l-.74,4.6h-4.6v12.11Z"/>
  </g>
</svg>