<?xml version="1.0" encoding="UTF-8"?>
<svg id="Livello_1" data-name="Livello 1" xmlns="http://www.w3.org/2000/svg" viewBox="0 0 38.13 38.2">
  <defs>
    <style>
      .cls-1 {
        fill: #89cae8;
      }
    </style>
  </defs>
  <g id="_6EsRfG" data-name="6EsRfG">
    <g>
      <path class="cls-1" d="M12.34.11c4.42-.16,9.31-.14,13.72.05,7.15.31,11.41,3.22,11.99,10.73-.17,5.28.23,10.71,0,15.97-.33,7.62-4.57,10.84-11.85,11.17-4.36.2-9.22.22-13.59.08-3.15-.1-6.34-.51-8.8-2.64C-.44,31.79.15,26.47.11,21.36c-.04-4.54-.65-12.14,1.59-16.08C4.02,1.21,7.95.27,12.34.11ZM13.53,3.6c-2.52.07-5.34.06-7.37,1.76-2.3,1.92-2.38,4.46-2.49,7.24-.17,4.31-.18,8.76,0,13.07.03.69,0,1.38.08,2.08.82,7.97,8.05,6.84,14.08,6.87,2.6.01,5.26.1,7.87,0,6.33-.22,8.58-2.23,8.87-8.58.2-4.47.21-9.41,0-13.88-.27-5.71-2.06-8.14-7.98-8.51-4.13-.26-8.89-.17-13.05-.05Z"/>
      <path class="cls-1" d="M28.92,19.1c0,5.41-4.39,9.8-9.8,9.8s-9.8-4.39-9.8-9.8,4.39-9.8,9.8-9.8,9.8,4.39,9.8,9.8ZM25.42,19.1c0-3.48-2.82-6.3-6.31-6.3s-6.31,2.82-6.31,6.3,2.82,6.3,6.31,6.3,6.31-2.82,6.31-6.3Z"/>
      <circle class="cls-1" cx="29.27" cy="8.95" r="2.31"/>
    </g>
  </g>
</svg>