<?xml version="1.0" encoding="UTF-8"?>
<svg id="Livello_1" data-name="Livello 1" xmlns="http://www.w3.org/2000/svg" viewBox="0 0 38.04 38.03">
  <defs>
    <style>
      .cls-1 {
        fill: #89cae8;
      }
    </style>
  </defs>
  <g id="jiOfSK">
    <g>
      <path class="cls-1" d="M3.7.02l30.44-.02c2.06.26,3.68,1.91,3.9,3.97v30.08c-.22,2.08-1.89,3.76-3.97,3.97H3.97c-2.08-.22-3.76-1.89-3.97-3.97V3.83C.3,1.88,1.77.39,3.7.02ZM4.44,2.99c-.98.12-1.4.69-1.47,1.65v28.75c.09,1.14.63,1.59,1.74,1.67h28.68c1.14-.09,1.59-.63,1.67-1.75V4.64c-.09-1.08-.59-1.59-1.67-1.67l-28.95.02Z"/>
      <g>
        <circle class="cls-1" cx="9.36" cy="9.29" r="3.08"/>
        <g>
          <path class="cls-1" d="M31.35,31.42h-5.13c-.09-2.77.11-5.6,0-8.36-.08-1.95-.26-4.29-2.79-4.27s-3.13,2.05-3.23,4.2c-.14,2.77.11,5.65,0,8.43h-5.05V14.63h5.05v2.15l.78-.97c1.94-1.87,5.9-1.99,8.08-.5,1.69,1.15,2.1,3.32,2.28,5.22v10.88Z"/>
          <rect class="cls-1" x="6.69" y="14.63" width="5.2" height="16.78"/>
        </g>
      </g>
    </g>
  </g>
</svg>