<?xml version="1.0" encoding="UTF-8"?>
<svg id="Livello_1" data-name="Livello 1" xmlns="http://www.w3.org/2000/svg" viewBox="0 0 571.5 128.48">
  <defs>
    <style>
      .cls-1 {
        fill: #8ec1e1;
      }
    </style>
  </defs>
  <g>
    <path class="cls-1" d="M103.34,105.6c.35-.69-.16-1.51-.93-1.51H1.3c-.72,0-1.3.58-1.3,1.3v20.53c0,.72.58,1.3,1.3,1.3h90.58c.4,0,.75-.22.93-.58l10.52-21.05h0Z"/>
    <path class="cls-1" d="M133,104.1h-16.31c-.58,0-1.04-.47-1.04-1.04V1.31c0-.72-.58-1.3-1.3-1.3h-20.53c-.72,0-1.3.58-1.3,1.3v90.79c0,.28.11.54.31.74l34.08,34.09c.19.19.46.31.74.31h79.23c.72,0,1.3-.58,1.3-1.3v-20.53c0-.72-.58-1.3-1.3-1.3h-73.87,0Z"/>
  </g>
  <g>
    <g>
      <path class="cls-1" d="M262.85,0h36.56v2.26l-28.62,51.93v.5h11.83c2.06,0,3.81-.46,5.26-1.38,1.45-.89,2.75-2.27,3.93-4.14,1.17-1.84,1.75-5.17,1.75-9.99v-2.13h4.56v21.14h-37.9v-2.46l28.57-51.69v-.54h-8.23c-4.49,0-7.8,1.29-9.95,3.88-2.12,2.56-3.34,7.31-3.68,14.25h-4.1V0h0Z"/>
      <path class="cls-1" d="M316.69,59.38c-4.29,0-7.98-1.92-11.08-5.76-3.09-3.84-4.64-8.79-4.64-14.83s1.51-11.08,4.52-15c3.01-3.93,6.67-5.89,10.99-5.89s7.75,1.77,10.28,5.3c2.56,3.56,3.84,7.7,3.84,12.41v3.68h-21.06c0,10.73,2.72,16.09,8.15,16.09,4.1.03,7.11-2.69,9.07-8.15l3.26,1.38c-2.53,7.18-6.99,10.78-13.37,10.78h.04,0ZM321.04,36.06c.89,0,1.31-.57,1.26-1.71v-1.97c0-3.76-.6-6.53-1.8-8.31-1.2-1.78-2.63-2.68-4.3-2.68s-3.16,1.26-4.56,3.76c-1.36,2.48-2.04,6.1-2.04,10.86l11.44.04h0Z"/>
      <path class="cls-1" d="M331.59,19.01l12.33-1.21v7.02h.33c.92-2.03,2.29-3.71,4.1-5.01s4.03-1.97,6.65-1.97,4.74.71,6.27,2.13c1.56,1.45,2.55,3.08,2.97,4.89.42,1.84.62,4.1.62,6.77v20.56c0,1.53.28,2.37.84,2.51.48.11,1.06.17,1.75.17h2.63v3.34h-16.92v-3.34h1.88c.45,0,.87-.03,1.26-.09.28-.03.57-.26.88-.71.28-.39.42-1.02.42-1.88v-20.39c0-6.43-1.6-9.65-4.81-9.65-1.78,0-3.36.85-4.72,2.55-1.39,1.73-2.38,3.59-2.97,5.6-.58,2.01-.88,3.81-.88,5.39v16.46c0,1.53.29,2.37.88,2.51.53.11,1.1.17,1.71.17h1.8v3.34h-16.84v-3.34h2.63c.7,0,1.28-.06,1.75-.17.55-.14.84-.97.84-2.51v-26.87c0-1.26-.21-2.04-.62-2.38-.42-.33-1.31-.5-2.68-.5h-1.97l-.13-3.39h0Z"/>
      <path class="cls-1" d="M371.78,19.22l12.95-1.21v34.26c0,1.56.28,2.38.84,2.46s1.1.13,1.63.13h3.51v3.34h-19.26v-3.34h3.43c.7,0,1.28-.06,1.75-.17.55-.14.84-.97.84-2.51v-27.91c0-1.2-1.06-1.8-3.17-1.8h-2.51v-3.26h0ZM383.31,8.82c-.94,1-2.12,1.51-3.51,1.51s-2.55-.5-3.55-1.51c-1-1-1.51-2.22-1.51-3.64s.5-2.63,1.51-3.64c1-1,2.19-1.51,3.55-1.51s2.56.5,3.51,1.51c.94.97,1.42,2.19,1.42,3.64s-.48,2.66-1.42,3.64Z"/>
      <path class="cls-1" d="M387.72,19.13c6.57,0,9.86-5.42,9.86-16.25v-1.55h4.26v17.8h9.69v3.34h-9.69v25.32c0,2.14.25,3.79.75,4.93.5,1.11,1.49,1.67,2.97,1.67,2.68,0,4.01-3.68,4.01-11.03v-2.04h3.81v2.04c0,10.67-3.17,16-9.53,16s-9.24-4.16-9.24-12.5v-24.39h-6.85l-.04-3.34Z"/>
    </g>
    <path class="cls-1" d="M302.09,68.94v21.94h-4.1c-.17-6.57-1.26-11.34-3.26-14.29-2.01-2.98-4.29-4.47-6.85-4.47-.92,0-1.55.21-1.88.62s-.5,1.17-.5,2.26v45.17c0,1.87.38,2.93,1.13,3.17s1.56.38,2.42.38h3.68v3.51h-23.27v-3.51h3.68c1.11,0,1.94-.21,2.46-.62.55-.42.88-.82.96-1.21s.13-.96.13-1.71v-45.17c0-1.14-.18-1.9-.54-2.26-.39-.39-.97-.58-1.75-.58-2.53,0-4.85,1.51-6.94,4.52-2.06,2.98-3.12,7.75-3.17,14.29h-4.05v-21.94l41.87-.09h0Z"/>
    <path class="cls-1" d="M316.69,128.43c-4.29,0-7.98-1.92-11.08-5.76-3.09-3.84-4.64-8.79-4.64-14.83s1.51-11.08,4.52-15c3.01-3.93,6.67-5.89,10.99-5.89s7.75,1.77,10.28,5.3c2.56,3.56,3.84,7.7,3.84,12.41v3.68h-21.06c0,10.73,2.72,16.09,8.15,16.09,4.1.03,7.11-2.69,9.07-8.15l3.26,1.38c-2.53,7.18-6.99,10.78-13.37,10.78h.04,0ZM321.04,105.12c.89,0,1.31-.57,1.26-1.71v-1.97c0-3.76-.6-6.53-1.8-8.31-1.2-1.78-2.63-2.68-4.3-2.68s-3.16,1.26-4.56,3.76c-1.36,2.48-2.04,6.1-2.04,10.86l11.44.04h0Z"/>
    <path class="cls-1" d="M331.77,67.64l12.5-1.21v54.86c0,1.56.28,2.38.84,2.46.55.09,1.1.13,1.63.13h3.51v3.34h-19.26v-3.34h3.43c.7,0,1.28-.06,1.75-.17.55-.14.84-.97.84-2.51v-48.47c0-.81-.22-1.31-.67-1.51-.5-.22-1.33-.33-2.51-.33h-2.04v-3.26h-.01Z"/>
    <path class="cls-1" d="M364.21,128.43c-4.29,0-7.98-1.92-11.08-5.76-3.09-3.84-4.64-8.79-4.64-14.83s1.51-11.08,4.52-15c3.01-3.93,6.67-5.89,10.99-5.89s7.75,1.77,10.28,5.3c2.56,3.56,3.84,7.7,3.84,12.41v3.68h-21.06c0,10.73,2.72,16.09,8.15,16.09,4.1.03,7.11-2.69,9.07-8.15l3.26,1.38c-2.53,7.18-6.99,10.78-13.37,10.78h.04,0ZM368.56,105.12c.89,0,1.31-.57,1.26-1.71v-1.97c0-3.76-.6-6.53-1.8-8.31-1.2-1.78-2.63-2.68-4.3-2.68s-3.16,1.26-4.56,3.76c-1.36,2.48-2.04,6.1-2.04,10.86l11.44.04h0Z"/>
    <path class="cls-1" d="M378.52,88.16l12.2-1.21v7.1h.46c2.26-4.74,5.72-7.1,10.4-7.1s7.53,2.44,8.48,7.31h.46c.97-2.17,2.35-3.93,4.14-5.26,1.81-1.33,3.73-2.01,5.76-2.01,6.79,0,10.2,4.17,10.2,12.5v21.77c0,1.56.28,2.38.84,2.46.55.09,1.14.13,1.75.13h2.68v3.34h-16.09v-3.34h1.26c.55,0,1.1-.04,1.63-.13.53-.09.8-.9.8-2.46v-20.39c0-3.04-.33-5.39-1-7.06-.67-1.67-1.95-2.51-3.84-2.51-2.53,0-4.46,1.55-5.76,4.64-1.31,3.12-1.97,6.21-1.97,9.27v16c0,1.53.25,2.37.75,2.51.45.11,1.02.16,1.71.16h1.55v3.34h-15.25v-3.34h1.46c.45,0,.87-.03,1.26-.09.28-.03.57-.26.88-.71.31-.45.46-1.07.46-1.88v-20.39c0-4.96-.49-7.8-1.46-8.53-.97-.72-2.06-1.09-3.26-1.09s-2.36.54-3.51,1.63c-1.11,1.09-2.13,2.81-3.05,5.18-.92,2.37-1.38,4.76-1.38,7.18v15.92c0,1.53.29,2.37.88,2.51.53.11,1.1.17,1.71.17h1.21v3.34h-16.17v-3.34h2.63c.7,0,1.28-.06,1.75-.17.55-.14.84-.97.84-2.51v-27.75c0-1.09-.35-1.68-1.04-1.8-.64-.11-1.35-.17-2.13-.17h-2.04l-.17-3.26-.03.02Z"/>
    <path class="cls-1" d="M469.93,122.22l-.72.96c-.25.36-.53.7-.83,1-.25.25-.65.38-1.21.38-1.48-.05-2.22-1.49-2.22-4.3v-19.77c0-9.02-4.2-13.54-12.58-13.54-4.15,0-7.27,1.17-9.36,3.51s-3.14,4.85-3.14,7.52c0,1.73.47,3.02,1.42,3.89.97.89,2.07,1.33,3.3,1.33s2.26-.36,3.14-1.09c.83-.72,1.25-1.67,1.25-2.84s-.33-2.02-1-2.56c-.67-.55-1.34-.97-2.01-1.25-.67-.31-1-.7-1-1.17,0-1.03.65-1.99,1.96-2.88,1.29-.87,2.66-1.3,4.1-1.3,4.35,0,6.51,2.77,6.51,8.31v4.18c-6.99,1.81-12.09,4-15.29,6.56-3.23,2.59-4.85,6.08-4.85,10.45,0,2.31.72,4.36,2.17,6.14,1.48,1.8,4,2.71,7.56,2.71,4.4,0,7.91-2.17,10.53-6.51h.25c.31,4.35,2.44,6.51,6.4,6.51,0,0,1.7.06,3.1-.52.04-.01.07-.04.1-.05.01,0,.02,0,.04-.01.31-.12.6-.26.87-.43,1.06-.64,2.26-1.77,3.64-3.39l-2.13-1.88h0ZM455.17,120.83c-1.56,1.98-3.16,2.97-4.8,2.97s-2.88-.59-3.64-1.76c-.75-1.17-1.13-2.44-1.13-3.81,0-6.4,3.94-10.54,11.82-12.4l.05,7.98c0,2.73-.77,5.07-2.3,7.01h0Z"/>
    <path class="cls-1" d="M467.1,88.2c6.57,0,9.86-5.42,9.86-16.25v-1.55h4.26v17.8h9.69v3.34h-9.69v25.32c0,2.14.25,3.79.75,4.93.5,1.11,1.49,1.67,2.97,1.67,2.68,0,4.01-3.68,4.01-11.03v-2.04h3.81v2.04c0,10.67-3.17,16-9.53,16s-9.24-4.16-9.24-12.5v-24.4h-6.85l-.04-3.34h0Z"/>
    <path class="cls-1" d="M493.85,88.24l12.95-1.21v34.26c0,1.56.28,2.38.84,2.46.55.09,1.1.13,1.63.13h3.51v3.34h-19.26v-3.34h3.43c.7,0,1.28-.06,1.75-.17.55-.14.84-.97.84-2.51v-27.91c0-1.2-1.06-1.8-3.17-1.8h-2.51v-3.26h0ZM505.39,77.83c-.94,1-2.12,1.51-3.51,1.51s-2.55-.5-3.55-1.51c-1-1-1.51-2.22-1.51-3.64s.5-2.63,1.51-3.64c1-1,2.19-1.51,3.55-1.51s2.56.5,3.51,1.51c.94.97,1.42,2.19,1.42,3.64s-.48,2.66-1.42,3.64Z"/>
    <path class="cls-1" d="M569.53,101.61h-3.51c-1.03-3.56-2.29-6.28-3.76-8.15-1.48-1.9-3.52-2.84-6.14-2.84-1.73,0-3.16.52-4.3,1.55-1.17,1.03-1.75,2.38-1.75,4.05s.49,2.95,1.46,3.93c.97.94,2.02,1.62,3.13,2.01,1.33.45,2.84.89,4.52,1.33,1.95.53,3.72,1.09,5.3,1.67,1.67.61,3.26,1.82,4.76,3.64,1.51,1.78,2.26,4.17,2.26,7.14s-.58,5.43-1.75,7.27c-1.17,1.84-2.63,3.17-4.39,4.01s-3.82,1.26-6.18,1.26c-3.98,0-7.2-1.35-9.66-4.05l-1.46,2.84h-3.76v-14.12h4.01c1.84,7.83,5.6,11.74,11.28,11.74,4.52,0,6.77-2.09,6.77-6.27,0-1.98-.81-3.48-2.42-4.52-1.65-1.06-3.62-1.85-5.94-2.38-2.31-.53-4.04-1.03-5.18-1.51-1.09-.45-2.73-1.36-4.93-2.75-2.17-1.39-3.26-4.33-3.26-8.82,0-3.26,1.04-6.01,3.13-8.27,2.09-2.26,4.86-3.39,8.31-3.39s6.43,1.32,8.95,3.97l1.29-2.75h3.26l-.04,13.41h0Z"/>
    <path class="cls-1" d="M541.74,115.56c-3.23,13.67-13.6,12.87-13.6,12.87h-.34s-.13-.01-.13-.01c-4.24-.21-7.74-2.24-10.5-6.09-2.93-4.07-4.39-8.98-4.39-14.75s1.46-10.66,4.39-14.66c2.93-4.01,6.75-6.01,11.49-6.01,3.82,0,6.78,1.09,8.9,3.25,2.12,2.14,3.17,4.46,3.17,6.94,0,1.42-.37,2.66-1.12,3.71-.76,1.06-1.95,1.59-3.55,1.59s-2.75-.45-3.39-1.34c-.61-.87-.92-1.82-.92-2.88s.32-1.94.97-2.8c.64-.87.96-1.56.96-2.09,0-.56-.43-1.22-1.29-2-.89-.81-1.94-1.21-3.14-1.21-5.26,0-7.9,5.71-7.9,17.13s2.66,17.1,7.98,17.05c4.52,0,7.5-3.24,8.99-9.74l3.42,1.04h0Z"/>
  </g>
</svg>